<?xml version="1.0" encoding="UTF-8"?><svg xmlns="http://www.w3.org/2000/svg" width="500" height="400"><rect width="500" height="400" fill="#fafafa"/><g stroke="#e5e7eb" stroke-width="2"><line x1="250" y1="50" x2="250" y2="350" /><line x1="50" y1="200" x2="450" y2="200" /></g><circle cx="250" cy="130" r="30" fill="#1f2937"/><rect x="256.3604357223367" y="30.325589809335185" width="8" height="10" fill="#6b7280"/><circle cx="258.7733263495013" cy="130.55197090798654" r="30" fill="#1f2937"/><rect x="276.91791690664456" y="32.92260362976637" width="8" height="10" fill="#6b7280"/><circle cx="267.4082921015398" cy="132.19917872099583" r="30" fill="#1f2937"/><rect x="296.9878040718663" y="38.07567481129968" width="8" height="10" fill="#6b7280"/><circle cx="275.76871868792745" cy="134.91564598782242" r="30" fill="#1f2937"/><rect x="316.253583108237" y="45.70353634310678" width="8" height="10" fill="#6b7280"/><circle cx="283.72275718712007" cy="138.65853239692956" r="30" fill="#1f2937"/><rect x="334.41142117153447" y="55.68589229216752" width="8" height="10" fill="#6b7280"/><circle cx="291.1449676604731" cy="143.36881039375368" r="30" fill="#1f2937"/><rect x="351.1749583085338" y="67.86531494199477" width="8" height="10" fill="#6b7280"/><circle cx="297.9182974150082" cy="148.9721960805012" r="30" fill="#1f2937"/><rect x="366.2798235245329" y="82.04972752176639" width="8" height="10" fill="#6b7280"/><circle cx="303.93592699430525" cy="155.38032071759173" r="30" fill="#1f2937"/><rect x="379.4878040718663" y="98.01543337174195" width="8" height="10" fill="#6b7280"/><circle cx="309.10295478514104" cy="162.49212435147024" r="30" fill="#1f2937"/><rect x="390.59060220723745" y="115.51064377321698" width="8" height="10" fill="#6b7280"/><circle cx="313.33789367262136" cy="170.19544959044492" r="30" fill="#1f2937"/><rect x="399.4131201715615" y="134.25944880702815" width="8" height="10" fill="#6b7280"/><circle cx="316.57395614066075" cy="178.36881039375368" r="30" fill="#1f2937"/><rect x="405.8162215862241" y="153.96616861779896" width="8" height="10" fill="#6b7280"/><circle cx="318.7601075510082" cy="186.88330797899928" r="30" fill="#1f2937"/><rect x="409.6989257168889" y="174.32001646188982" width="8" height="10" fill="#6b7280"/><circle cx="319.861870989979" cy="195.60466363294807" r="30" fill="#1f2937"/><rect x="411" y="195.00000000000003" width="8" height="10" fill="#6b7280"/><circle cx="319.861870989979" cy="204.39533636705195" r="30" fill="#1f2937"/><rect x="409.6989257168888" y="215.6799835381102" width="8" height="10" fill="#6b7280"/><circle cx="318.7601075510082" cy="213.11669202100074" r="30" fill="#1f2937"/><rect x="405.8162215862241" y="236.03383138220107" width="8" height="10" fill="#6b7280"/><circle cx="316.57395614066075" cy="221.63118960624632" r="30" fill="#1f2937"/><rect x="399.41312017156145" y="255.7405511929719" width="8" height="10" fill="#6b7280"/><circle cx="313.33789367262136" cy="229.8045504095551" r="30" fill="#1f2937"/><rect x="390.59060220723745" y="274.489356226783" width="8" height="10" fill="#6b7280"/><circle cx="309.10295478514104" cy="237.5078756485298" r="30" fill="#1f2937"/><rect x="379.4878040718663" y="291.9845666282581" width="8" height="10" fill="#6b7280"/><circle cx="303.93592699430525" cy="244.6196792824083" r="30" fill="#1f2937"/><rect x="366.2798235245329" y="307.9502724782336" width="8" height="10" fill="#6b7280"/><circle cx="297.91829741500817" cy="251.0278039194988" r="30" fill="#1f2937"/><rect x="351.17495830853375" y="322.13468505800523" width="8" height="10" fill="#6b7280"/><circle cx="291.1449676604731" cy="256.6311896062463" r="30" fill="#1f2937"/><rect x="334.4114211715344" y="334.3141077078325" width="8" height="10" fill="#6b7280"/><circle cx="283.72275718712007" cy="261.34146760307044" r="30" fill="#1f2937"/><rect x="316.25358310823697" y="344.29646365689325" width="8" height="10" fill="#6b7280"/><circle cx="275.76871868792745" cy="265.08435401217764" r="30" fill="#1f2937"/><rect x="296.98780407186626" y="351.9243251887003" width="8" height="10" fill="#6b7280"/><circle cx="267.4082921015398" cy="267.80082127900414" r="30" fill="#1f2937"/><rect x="276.91791690664456" y="357.0773963702336" width="8" height="10" fill="#6b7280"/><circle cx="258.7733263495013" cy="269.4480290920135" r="30" fill="#1f2937"/><rect x="256.36043572233666" y="359.67441019066484" width="8" height="10" fill="#6b7280"/><circle cx="249.99999999999997" cy="270" r="30" fill="#1f2937"/><rect x="235.63956427766323" y="359.67441019066484" width="8" height="10" fill="#6b7280"/><circle cx="241.2266736504987" cy="269.4480290920134" r="30" fill="#1f2937"/><rect x="215.0820830933554" y="357.0773963702336" width="8" height="10" fill="#6b7280"/><circle cx="232.59170789846013" cy="267.80082127900414" r="30" fill="#1f2937"/><rect x="195.01219592813362" y="351.9243251887003" width="8" height="10" fill="#6b7280"/><circle cx="224.23128131207253" cy="265.0843540121776" r="30" fill="#1f2937"/><rect x="175.74641689176292" y="344.2964636568932" width="8" height="10" fill="#6b7280"/><circle cx="216.27724281287993" cy="261.34146760307044" r="30" fill="#1f2937"/><rect x="157.58857882846553" y="334.3141077078325" width="8" height="10" fill="#6b7280"/><circle cx="208.85503233952687" cy="256.6311896062463" r="30" fill="#1f2937"/><rect x="140.82504169146614" y="322.1346850580052" width="8" height="10" fill="#6b7280"/><circle cx="202.08170258499177" cy="251.0278039194988" r="30" fill="#1f2937"/><rect x="125.72017647546707" y="307.9502724782336" width="8" height="10" fill="#6b7280"/><circle cx="196.06407300569475" cy="244.61967928240827" r="30" fill="#1f2937"/><rect x="112.51219592813362" y="291.984566628258" width="8" height="10" fill="#6b7280"/><circle cx="190.89704521485893" cy="237.50787564852973" r="30" fill="#1f2937"/><rect x="101.40939779276246" y="274.48935622678295" width="8" height="10" fill="#6b7280"/><circle cx="186.6621063273786" cy="229.80455040955505" r="30" fill="#1f2937"/><rect x="92.58687982843847" y="255.74055119297174" width="8" height="10" fill="#6b7280"/><circle cx="183.42604385933925" cy="221.63118960624632" r="30" fill="#1f2937"/><rect x="86.18377841377588" y="236.03383138220104" width="8" height="10" fill="#6b7280"/><circle cx="181.23989244899178" cy="213.11669202100072" r="30" fill="#1f2937"/><rect x="82.30107428311115" y="215.67998353811018" width="8" height="10" fill="#6b7280"/><circle cx="180.13812901002098" cy="204.39533636705193" r="30" fill="#1f2937"/><rect x="81" y="194.99999999999994" width="8" height="10" fill="#6b7280"/><circle cx="180.13812901002098" cy="195.60466363294805" r="30" fill="#1f2937"/><rect x="82.30107428311118" y="174.3200164618897" width="8" height="10" fill="#6b7280"/><circle cx="181.23989244899178" cy="186.88330797899923" r="30" fill="#1f2937"/><rect x="86.18377841377588" y="153.96616861779884" width="8" height="10" fill="#6b7280"/><circle cx="183.42604385933925" cy="178.36881039375368" r="30" fill="#1f2937"/><rect x="92.5868798284385" y="134.25944880702815" width="8" height="10" fill="#6b7280"/><circle cx="186.66210632737864" cy="170.19544959044492" r="30" fill="#1f2937"/><rect x="101.40939779276252" y="115.51064377321697" width="8" height="10" fill="#6b7280"/><circle cx="190.89704521485896" cy="162.49212435147024" r="30" fill="#1f2937"/><rect x="112.5121959281337" y="98.01543337174189" width="8" height="10" fill="#6b7280"/><circle cx="196.06407300569475" cy="155.3803207175917" r="30" fill="#1f2937"/><rect x="125.72017647546716" y="82.04972752176633" width="8" height="10" fill="#6b7280"/><circle cx="202.08170258499183" cy="148.97219608050116" r="30" fill="#1f2937"/><rect x="140.82504169146623" y="67.86531494199475" width="8" height="10" fill="#6b7280"/><circle cx="208.85503233952693" cy="143.36881039375365" r="30" fill="#1f2937"/><rect x="157.5885788284656" y="55.685892292167466" width="8" height="10" fill="#6b7280"/><circle cx="216.27724281287993" cy="138.65853239692956" r="30" fill="#1f2937"/><rect x="175.74641689176298" y="45.703536343106805" width="8" height="10" fill="#6b7280"/><circle cx="224.23128131207255" cy="134.91564598782242" r="30" fill="#1f2937"/><rect x="195.01219592813365" y="38.07567481129968" width="8" height="10" fill="#6b7280"/><circle cx="232.59170789846019" cy="132.1991787209958" r="30" fill="#1f2937"/><rect x="215.08208309335544" y="32.92260362976637" width="8" height="10" fill="#6b7280"/><circle cx="241.22667365049875" cy="130.55197090798654" r="30" fill="#1f2937"/><rect x="235.6395642776633" y="30.325589809335185" width="8" height="10" fill="#6b7280"/></svg>